<?xml version="1.0" encoding="UTF-8"?>
<svg id="Layer_1" xmlns="http://www.w3.org/2000/svg" viewBox="0 0 250 250">
  <defs>
    <style>
      .cls-1 {
        fill: #ac3931;
      }
    </style>
  </defs>
  <path class="cls-1" d="M233.25,13.19c3.88-4.62,3.88-5.69,3.88-6.87,0-6.31-6.5-6.31-13.56-6.31H35.44c-13.5,0-13.5,1.19-14.81,10.31l-5.75,49.81-.62,4.63c0,5.12,4.5,6.88,7.06,6.88,3.88,0,6.44-2.25,7.06-5.69,1.31-8.56,5.19-24.56,30.31-38.31,23.19-13.75,52.19-14.87,66.37-14.87h32.87L3.87,236.81c-3.87,4.62-3.87,5.75-3.87,6.88,0,6.31,6.44,6.31,14.19,6.31h210.69c12.25,0,12.25-.56,14.19-10.31l10.94-72.06c0-4-3.88-6.31-7.06-6.31-6.44,0-7.06,3.44-8.37,10.87-7.06,29.75-38.62,65.25-97.31,65.25h-58.62L233.25,13.19ZM175.25,12.56h41.87L61.87,237.44H20L175.25,12.56Z"/>
</svg>