<?xml version="1.0" encoding="UTF-8"?>
<svg xmlns="http://www.w3.org/2000/svg" version="1.1" viewBox="0 0 400 400">
  <path fill = "#ac3931" d="M373.2,21.1c6.2-7.4,6.2-9.1,6.2-11,0-10.1-10.4-10.1-21.7-10.1H56.7c-21.6,0-21.6,1.9-23.7,16.5l-9.2,79.7-1,7.4c0,8.2,7.2,11,11.3,11,6.2,0,10.3-3.6,11.3-9.1,2.1-13.7,8.3-39.3,48.5-61.3,37.1-22,83.5-23.8,106.2-23.8h52.6L6.2,378.9c-6.2,7.4-6.2,9.2-6.2,11,0,10.1,10.3,10.1,22.7,10.1h337.1c19.6,0,19.6-.9,22.7-16.5l17.5-115.3c0-6.4-6.2-10.1-11.3-10.1-10.3,0-11.3,5.5-13.4,17.4-11.3,47.6-61.8,104.4-155.7,104.4h-93.8L373.2,21.1ZM280.4,20.1h67L99,379.9H32L280.4,20.1Z"/>
</svg>
