<?xml version="1.0" encoding="UTF-8"?>
<svg xmlns="http://www.w3.org/2000/svg" width="100%" height="100%" viewBox="0 0 1000 750">
    <defs>
        <style>
            .large-text {
                font-size: 36px;
                fill: #333;
            }
            .small-text {
                font-size: 18px;
                fill: #333;
            }
            .producer-surplus {
                fill: #f16163;
            }
            .consumer-surplus {
                fill: #79acdd;
            }
            .tax-revenue {
                fill: #6abe4e;
            }
            .dead-weight-loss {
                fill: #f8f18d;
            }
            .lines-theme {
                fill: none;
                stroke: #333;
                stroke-miterlimit: 10;
                stroke-width: 5px;
            }
            .legend-background {
                fill: #f0f0f0;
            }

            @media (prefers-color-scheme: dark) {
                .large-text {
                    fill: #e0e0e0;
                }
                .small-text {
                    fill: #e0e0e0;
                }
                .lines-theme {
                    stroke: #e0e0e0;
                }
                .legend-background {
                    fill: #2f2f2f;
                }
            }
        </style>
    </defs>

    <rect class="tax-revenue" x="100" y="400" width="275" height="175"/>
    <path id="Bracket" class="lines-theme" d="M577.5,575h0c16.57,0,30-13.43,30-30v-31.72c0-5.3,2.11-10.39,5.86-14.14l9.14-9.14-9.14-9.14c-3.75-3.75-5.86-8.84-5.86-14.14v-36.72c0-16.57-13.43-30-30-30h0"/>
    <rect class="producer-surplus" x="100" y="575" width="275" height="100"/>
    <polygon class="consumer-surplus" points="100 150 375 400 100 400 100 150"/>
    <polyline id="axes" class="lines-theme" points="100,125 100,675 650,675"/>
    <line id="Supply_Curve" class="lines-theme" x1="375" y1="675" x2="375" y2="125"/>
    <line id="Demand_Curve" class="lines-theme" x1="100" y1="150" x2="650" y2="650"/>
    <text class="large-text"><tspan x="38.32" y="412.89">P</tspan></text>
    <text class="large-text"><tspan x="361" y="737.89">Q</tspan></text>
    <line id="Lower_Tax" class="lines-theme" x1="100" y1="575" x2="567.5" y2="575"/>
    <line id="Upper_Tax" class="lines-theme" x1="100" y1="400" x2="567.5" y2="400"/>
    <text class="small-text"><tspan x="637.5" y="496.44">Tax Rate</tspan></text>
    <text class="large-text"><tspan x="224.64" y="87.89">Land Supply and Demand + Taxes</tspan></text>

    <rect class="legend-background" x="725" y="125" width="225" height="550"/>
    <rect class="producer-surplus" x="755" y="300" width="110" height="110"/>
    <polygon class="consumer-surplus" points="755 150 865 250 755 250 755 150"/>
    <rect class="tax-revenue" x="755" y="460" width="110" height="70"/>
    <text class="small-text"><tspan x="755" y="281.44">Consumer Surplus</tspan></text>
    <text class="small-text"><tspan x="755" y="441.44">Producer Surplus</tspan></text>
    <text class="small-text"><tspan x="755" y="561.44">Tax Revenue</tspan></text>
</svg>
