<?xml version="1.0" encoding="UTF-8"?>
<svg xmlns="http://www.w3.org/2000/svg" width="100%" height="100%" viewBox="0 0 1000 750">
    <defs>
        <style>
            .large-text {
                font-size: 36px;
                fill: var(--primary-color);
            }
            .small-text {
                font-size: 18px;
                fill: var(--primary-color);
            }
            .producer-surplus {
                fill: #f16163;
            }
            .consumer-surplus {
                fill: #79acdd;
            }
            .tax-revenue {
                fill: #6abe4e;
            }
            .dead-weight-loss {
                fill: #f8f18d;
            }
            .lines-theme {
                fill: none;
                stroke: var(--primary-color);
                stroke-miterlimit: 10;
                stroke-width: 5px;
            }
            .legend-background {
                fill: var(--off-background-color);
            }
        </style>
    </defs>

    <polygon class="dead-weight-loss" points="265 300 375 400 265 500 265 300"/>
    <rect class="tax-revenue" x="100" y="300" width="165" height="200"/>
    <polygon class="producer-surplus" points="100 500 265 500 100 650 100 500"/>
    <polygon class="consumer-surplus" points="100 150 265 300 100 300 100 150"/>
    <polyline id="axes" class="lines-theme" points="100,125 100,675 650,675"/>
    <line id="Supply_Curve" class="lines-theme" x1="100" y1="650" x2="650" y2="150"/>
    <line id="Demand_Curve" class="lines-theme" x1="100" y1="150" x2="650" y2="650"/>
    <text class="large-text"><tspan x="38.32" y="412.89">P</tspan></text>
    <text class="large-text"><tspan x="361" y="737.89">Q</tspan></text>
    <line id="Lower_Tax" class="lines-theme" x1="100" y1="500" x2="485" y2="500"/>
    <line id="Upper_Tax" class="lines-theme" x1="100" y1="300" x2="485" y2="300"/>
    <path id="Bracket" class="lines-theme" d="M495,500h0c16.57,0,30-13.43,30-30v-46.72c0-5.3,2.11-10.39,5.86-14.14l9.14-9.14-9.14-9.14c-3.75-3.75-5.86-8.84-5.86-14.14v-46.72c0-16.57-13.43-30-30-30h0"/>
    <text class="large-text"><tspan x="575" y="406.44">Tax Rate</tspan></text>
    <text class="large-text"><tspan x="206.67" y="87.89">Normal Supply and Demand + Taxes</tspan></text>

    <rect class="legend-background" x="725" y="125" width="225" height="550"/>
    <text class="small-text"><tspan x="755" y="246.44">Consumer Surplus</tspan></text>
    <text class="small-text"><tspan x="755" y="366.44">Producer Surplus</tspan></text>
    <text class="small-text"><tspan x="755" y="506.44">Tax Revenue</tspan>></text>
    <text class="small-text"><tspan x="755" y="646.44">Dead Weight Loss</tspan></text>
    <polygon class="consumer-surplus" points="755 150 821 210 755 210 755 150"/>
    <polygon class="producer-surplus" points="755 270 821 270 755 330 755 270"/>
    <rect class="tax-revenue" x="755" y="390" width="66" height="80"/>
    <polygon class="dead-weigh-loss" points="755 530 799 570 755 610 755 530"/>
</svg>
