<?xml version="1.0" encoding="UTF-8"?>
<svg width="500" height="138.13" version="1.1" xmlns="http://www.w3.org/2000/svg" xmlns:cc="http://creativecommons.org/ns#" xmlns:dc="http://purl.org/dc/elements/1.1/" xmlns:rdf="http://www.w3.org/1999/02/22-rdf-syntax-ns#"><metadata><rdf:RDF><cc:Work rdf:about=""><dc:format>image/svg+xml</dc:format><dc:type rdf:resource="http://purl.org/dc/dcmitype/StillImage"/><dc:title/></cc:Work></rdf:RDF></metadata><g transform="matrix(1.4286 0 0 1.4286 .012714 .0045571)" fill="none" stroke="#231f20" stroke-width=".45433"><path d="m88.889 73.815 14.084-8.4763 0.39507-0.21531 14.813-5.7918"/><path d="m88.97 73.971 18.09-2.137 13.41-12.943"/><path d="m96.498 76.952 7.3681-8.2135"/><path d="m96.257 77.185 23.693-18.023"/><path d="m96.447 75.69 10.505 2.485 23.803-24.688"/><path d="m96.498 75.22 10.458 0.9383"/><path d="m107.01 75.907 13.89-17.262"/><path d="m84.763 8.3341 45.887 44.965"/><path d="m84.763 8.3341 4.97 6.497"/><path d="m128.89 54.162-43.997-37.919"/><path d="m85.112 16.917 5.1656 6.015"/><path d="m90.752 23.483 29.918 34.788"/><path d="m84.251 27.463 34.169 32.064"/><path d="m84.162 27.627 9.8748 12.711"/><path d="m84.063 27.882 7.2377 12.917"/><path d="m92.299 42.575 13.161 23.485"/><path d="m84.17 42.541 14.312 11.128"/><path d="m83.765 50.883 3.5556 3.1507"/><path d="m89.932 56.357 13.938 12.382"/><path d="m50.698 48.467c13.662 8.5889 25.65 12.466 40.621 9.1815 0 0 4.0534-0.77829 6.4377-2.6707"/><path d="m79.767 50.249 1.0647-5.855"/><path d="m81.867 41.018 1.1793-8.496"/><path d="m83.722 34.936h-0.97583"/><path d="m83.939 36.734h-1.4045"/><path d="m84.127 38.861h-1.8983"/><path d="m81.513 45.06h-0.79804"/><path d="m81.519 46.727h-1.126"/><path d="m81.446 48.586h-1.4183"/><path d="m83.204 28.609-2.517 12.297"/><path d="m80.312 42.484-2.268 10.726"/><path d="m77.402 56.268-1.0687 5.0391"/><path d="m79.06 56.45-2.965 7.072-5 11.913"/><path d="m78.487 60.655-4.909 14.816"/><path d="m80.046 58.791-4.153 16.982"/><path d="m80.367 61.967-1.582 10.975"/><path d="m82.665 60.576h-5.3137"/><path d="m81.879 62.55h-5.3117"/><path d="m81.721 64.602-6.077-0.024"/><path d="m81.847 66.666h-7.0402"/><path d="m73.965 68.733h7.1982"/><path d="m73.069 70.844h8.0496"/><path d="m72.225 72.861h8.7508"/><path d="m84.04 17.148-1.2939 5.8352"/><path d="m82.485 24.163-3.737 16.869"/><path d="m78.414 42.526-2.3448 10.572"/><path d="m75.342 56.379-3.226 14.55"/><path d="m84.636 8.3973-1.562 6.6117"/><path d="m82.821 16.093-1.6218 6.8604"/><path d="m80.899 24.248-3.909 16.551"/><path d="m76.589 42.514-2.766 11.729"/><path d="m73.312 56.402-1.3373 6.0999"/><path d="M 66.275,53.552 81.73,42.51"/><path d="m74.113 40.392 9.342-12.757"/><path d="m84.516 16.101-6.6273 6.7557"/><path d="m79.85 14.853 4.753-6.5169"/><path d="m81.936 50.662s-3.4806 1.7877-18.489 1.6534"/><path d="m94.112 41.17c-0.09482 0.20149-0.74669 0.73088-1.8628 1.4321-2.0188 1.2702-5.5606 3.1092-10.128 4.6717"/><path d="m80.172 47.857c-7.939 2.4317-18.428 3.8539-29.338 0.45631"/><path d="m73.776 41.097s-10.87 9.9696-22.896 6.892"/><path d="m56.997 54.149 24.919 21.46"/><path d="m50.425 48.896 4.168 3.3305"/><path d="m71.437 60.547 0.245-10.774"/><path d="m70.534 60.543 0.291-4.166"/><path d="m53.595 23.677 35.661 16.573"/><path d="m90.223 23.993c-1.361 0.663-20.11 7.37-39.087-2.023"/><path d="m77.96 22.873s-11.576 3.6801-26.719-0.9778"/><path d="m73.926 40.333-21.498-17.022"/><path d="m61.027 37.06-9.978-14.997"/><path d="M 84.545,14.78 51.65,0.559"/><path d="m51.669 0.58871 4.803 6.4258"/><path d="m51.839 8.3558c7.3009 4.3497 19.212 7.8461 27.683 6.6866"/><path d="m53.084 9.5509c6.6886 4.573 20.396 11.337 35.481 6.4021"/><path d="m51.498 8.2116 6.8604 8.1464"/><path d="m30.859 16.895 3.9981 5.3769"/><path d="m30.859 16.895 19.524 4.4485"/><path d="m34.786 22.345c2.4791-0.23309 7.0797-1.847 11.585-4.6915"/><path d="m48.181 16.435c3.4154-2.4317 6.5997-5.5903 8.5434-9.3988"/><path d="m24.98 29.277 5.4974-5.9616"/><path d="m31.343 22.379 20.07-21.765"/><path d="m32.698 34.604 2.807-4.227"/><path d="m36.098 29.482 8.529-12.847 6.641-8.2555"/><path d="m30.806 23.104 5.473 6.106"/><path d="m31.205 23.282 15.639 14.268"/><path d="m49.979 21.849c-1.442 0.98175-8.1148 2.0544-14.944 0.55903"/><path d="m49.366 22.61c-2.3843 1.7996-9.4995 5.1952-24.238 6.5128"/><path d="m50.512 21.875c-0.77829 1.3808-5.2722 5.4204-12.806 7.3128"/><path d="m49.734 23.521-9.324 13.464"/><path d="m58.311 16.767c-3.276 4.869-14.987 15.894-25.71 17.889"/><path d="m51.506 0.69735-1.717 6.4358"/><path d="m49.481 8.2808-2.197 8.2232"/><path d="m46.992 17.589-5.249 19.852"/><path d="m41.4 38.745-3.436 12.99"/><path d="m37.113 54.943-5.523 18.351"/><path d="m51.268 8.3795-1.971 8.1855"/><path d="m49.06 17.557-4.686 19.86"/><path d="m43.932 39.292-2.981 12.64"/><path d="m40.442 54.081-1.162 4.935"/><path d="m37.874 65.394-2.0484 7.8995"/><path d="m40.582 38.047-8.7844 15.748"/><path d="m30.922 55.358-1.4934 2.6885"/><path d="m48.752 46.974-18.324-13.993"/><path d="m51.063 39.748 12.958 11.692"/><path d="m33.326 55.687-4.4149 2.7102"/><path d="m61.06 38.069-11.923 7.894"/><path d="m47.075 47.326-7.374 4.8772"/><path d="m39.823 69.489 3.429-15.465"/><path d="m44.341 49.111 2.0781-9.4007"/><path d="m46.828 37.864 3.5043-15.858"/><path d="m49.819 27.402-1.881 10.399"/><path d="m47.399 41.457-1.1161 5.529"/><path d="m50.494 30.506h-1.1477"/><path d="m50.494 32.277h-1.5586"/><path d="m50.526 34.109h-1.8726"/><path d="m50.522 36.029h-2.2124"/><path d="m48.916 44.841-2.2164-0.0059"/><path d="m48.855 43.035-1.7284-4e-3"/><path d="m47.897 47.48-1.4677 4.3359"/><path d="m45.728 53.892-6.657 19.684"/><path d="m46.093 55.824-4.304 19.196"/><path d="m47.393 54.038-2.0899 17.531"/><path d="m44.098 58.826h3.9566"/><path d="m43.397 60.825h4.6994"/><path d="m42.701 62.832h5.4283"/><path d="m48.274 64.833h-6.2165"/><path d="m41.279 66.842h7.0105"/><path d="m40.605 68.827h7.6802"/><path d="m39.916 71.075h8.4842"/><path d="m38.851 54.745c1.1358 0.78224 3.2672 1.7403 5.7167 2.3566"/><path d="m49.005 57.839c6.2836 0.87508 14.308 0.77236 21.709-1.4539"/><path d="m76.492 54.123c1.685-0.84743 3.5734-1.9912 5.0767-3.1428"/><path d="m62.536 53.062c-2.359 1.695-18.422 13.144-48.552 18.539"/><path d="m36.848 55.126c-4.685 5.782-15.631 14.241-22.866 16.611"/><path d="m33.625 51.16 14.402-11.092"/><path d="m39.505 51.835 0.20346-5.13"/><path d="m37.826 51.729-7.4313-6.9256"/><path d="m37.405 43.685-7.095-10.916"/><path d="m33.008 55.271 16.226 18.933"/><path d="m30.162 52.041 1.6178 1.6573"/><path d="m38.184 43.782c3.2258-0.95607 5.9794-2.161 8.0891-3.2929"/><path d="m48.228 39.246s-0.67755 0.18173-1.8509 0.48396c-3.0934 0.80397-9.618 2.483-16.014 3.9547"/></g><g transform="matrix(2.822 0 0 -2.822 43.941 24.056)"><path d="m0 0-2.024-2.776" fill="none" stroke="#231f20" stroke-width=".23"/><g transform="translate(-.007 -.067)"><path d="m0 0-1.434-6.313" fill="none" stroke="#231f20" stroke-width=".23"/><g transform="translate(-1.552,-6.836)"><path d="m0 0-2.695-11.861" fill="none" stroke="#231f20" stroke-width=".23"/><g transform="translate(-2.865,-12.61)"><path d="m0 0-1.911-8.41" fill="none" stroke="#231f20" stroke-width=".23"/><g transform="translate(4.32,16.305)"><path d="m0 0-0.67-3.172" fill="none" stroke="#231f20" stroke-width=".23"/><g transform="translate(-.777 -3.681)"><path d="m0 0-2.503-11.862" fill="none" stroke="#231f20" stroke-width=".23"/><g transform="translate(-2.652,-12.565)"><path d="m0 0-1.806-8.548" fill="none" stroke="#231f20" stroke-width=".23"/><g transform="translate(3.131,11.305)"><path d="m0 0-3.558-5.458" fill="none" stroke="#231f20" stroke-width=".23"/><g transform="translate(-.051 -.053)"><path d="m0 0-1.135-5.457" fill="none" stroke="#231f20" stroke-width=".23"/><g transform="translate(-1.258,-6.054)"><path d="m0 0-0.927-4.464" fill="none" stroke="#231f20" stroke-width=".23"/><g transform="translate(-1.085,-5.23)"><path d="m0 0-1.774-8.541" fill="none" stroke="#231f20" stroke-width=".23"/><g transform="translate(2.015,8.161)"><path d="m0 0-1.007-5.709" fill="none" stroke="#231f20" stroke-width=".23"/><g transform="translate(-.141 -.855)"><path d="m0 0h0.703" fill="none" stroke="#231f20" stroke-width=".23"/><g transform="translate(-.127 -.767)"><path d="m0 0h0.83" fill="none" stroke="#231f20" stroke-width=".23"/><g transform="translate(-1.457,-1.242)"><path d="m0 0-4.731-0.309" fill="none" stroke="#231f20" stroke-width=".23"/><g transform="translate(.312 -.019)"><path d="m0 0-3.382-1.395" fill="none" stroke="#231f20" stroke-width=".23"/><g transform="translate(.863 -.078)"><path d="m0 0-4.627-4.469" fill="none" stroke="#231f20" stroke-width=".23"/><g transform="translate(-.168 -3)"><path d="m0 0-0.215-1.022" fill="none" stroke="#231f20" stroke-width=".23"/><g transform="translate(-.471 -2.244)"><path d="m0 0-1.54-7.322" fill="none" stroke="#231f20" stroke-width=".23"/><g transform="translate(.191 -1.434)"><path d="m0 0-0.68-6.008" fill="none" stroke="#231f20" stroke-width=".23"/><g transform="translate(-.745 -1.316)"><path d="m0 0h1.345" fill="none" stroke="#231f20" stroke-width=".23"/><g transform="translate(-.198 -1)"><path d="m0 0h1.534" fill="none" stroke="#231f20" stroke-width=".23"/><g transform="translate(-.21 -1.02)"><path d="m0 0h1.744" fill="none" stroke="#231f20" stroke-width=".23"/><g transform="translate(-.215 -1.016)"><path d="m0 0 1.968 2e-3" fill="none" stroke="#231f20" stroke-width=".23"/><g transform="translate(0,5.777)"><path d="m0 0-4.586-6.726" fill="none" stroke="#231f20" stroke-width=".23"/><g transform="translate(-1.319 .048)"><path d="m0 0-7.847-6.253" fill="none" stroke="#231f20" stroke-width=".23"/><g transform="translate(-4.031,1.105)"><path d="m0 0-0.387 4.974" fill="none" stroke="#231f20" stroke-width=".23"/><g transform="translate(-.5 .022)"><path d="m0 0-0.248 5.117" fill="none" stroke="#231f20" stroke-width=".23"/><g transform="translate(.291 -9.344)"><path d="m0 0c-2.214 2.232-5.32 8.779-1.704 15.232" fill="none" stroke="#231f20" stroke-width=".23"/><g transform="translate(13.639,17.523)"><path d="m0 0-3.996 1.164" fill="none" stroke="#231f20" stroke-width=".23"/></g></g></g></g></g></g></g></g></g></g></g></g></g></g></g></g></g></g></g></g></g></g></g></g></g></g></g></g></g></g><g transform="matrix(1.4286 0 0 1.4286 .012714 .0045571)" fill="#fff" stroke-width="1.9754"><path d="m93.835 74.886-2.6904 1.5289s0.81187 0.17383 1.6395-0.2963c0.51754-0.29235 0.96398-0.89089 1.0509-1.2326"/><path d="m14.078 76.591-0.22519-0.76446h0.46816-0.46816l0.22717 0.76446"/><path d="m15.404 77.487-0.23309-0.76644h2e-3"/><path d="m15.769 76.591-0.227-0.765h0.478-0.476l0.22717 0.76446"/><path d="m16.042 77.487-0.13828-0.46816 0.14025 0.46816"/><path d="m16.868 76.721 0.08296 0.2963"/><path d="m17.464 76.591-0.23112-0.76446h0.47606-0.47211l0.23112 0.76446"/><path d="m17.735 77.487-0.23112-0.76644 0.23309 0.76644"/></g><path d="m43.498 42.894h0.30761v-0.65742h-0.30761z" fill="#231f20" stroke-width="2.2575"/><g transform="matrix(1.4286 0 0 1.4286 .012714 .0045571)" stroke-width="1.9754"><path d="m10.335 40.499-0.30223 0.39112-0.33779-0.2568 0.30025-0.39902" fill="#fff"/><path d="m90.033 77.292 2e-3 0.98373c-0.61236 0-0.96595-0.07902-0.96595-0.07902v-1.059c0.39902 0.1126 0.76249 0.1442 0.96398 0.15408m0.50569 0s0.5215-0.0158 1.0213-0.09679l-2e-3 0.89484c-0.24494 0.06519-0.6657 0.16198-1.0193 0.16593zm-1.9734 0.82372c-1.6692-0.48001-2.0919-1.9971-0.85733-2.5838 0 0-0.05333 0.89286 0.8573 1.3966zm3.4924-1.0292c0.13037-0.03753 0.92644-0.24692 1.6277-0.89879 0 0-0.45433 1.2405-1.6277 1.7324zm-5.8056 0.49186h-3.8638v-0.97385h-1.3353v0.97385h-3.3601v-0.97385h-1.3294v0.97385h-3.3621v-0.97385h-1.3334v0.97385h-3.357v-0.975h-1.335v0.97385h-3.3601v-0.97385h-1.3314v0.97385h-3.3581v-0.97385h-1.3373v0.97385h-3.357v-0.97385h-1.3353v0.97385h-3.3561v-0.97385h-1.3334v0.97385h-3.3581v-0.97385h-1.3353v0.97385h-3.3601v-0.97385h-1.3334v0.97385h-3.3561v-0.97385h-1.3334v0.97385h-3.3621v-0.97385h-1.3334v0.97385h-3.3581v-0.97385h-1.3334v0.97385h-3.3581v-0.97385h-1.3334v0.97385h-0.66174l-0.42865-1.44h67.302s0.08099-0.0039 0.08099 0c0 0.67755 0.03951 0.97583 0.39705 1.44zm-67.903-0.021-0.205-0.701h0.44l0.21136 0.70125zm-0.6578 0-0.20544-0.70125h0.4405l0.20939 0.70125zm-0.49582-1.6099h0.43853l0.21136 0.69928h-0.444zm-0.5294 1.6099-0.20346-0.70125h0.44248l0.20939 0.70125zm-0.65384 0-0.20741-0.70125h0.44248l0.20939 0.70125zm-0.49977-1.6099h0.4405l0.21136 0.69928h-0.443zm-0.52742 1.6099-0.20149-0.70125h0.43853l0.21334 0.70125zm-0.65582 0-0.20346-0.70125h0.4405l0.20939 0.70125zm-0.49582-1.6099h0.4405l0.20939 0.69928h-0.44841zm1.0963 0 0.21334 0.69928h-0.44841l-0.20346-0.69928zm1.683 0 0.21136 0.69928h-0.45038l-0.20346-0.69928zm1.6791 0 0.21136 0.69928h-0.44446l-0.20741-0.69928zm3.0203-1.3472h-1.3295v-0.97201h1.3295zm-5.4421-2.8801-0.22914-2.562 7.9666 1.0726-0.38124 1.9892zm0.22124 2.2302-0.37532-1.28h0.78619l0.37927 1.28zm9.6121-3.4411-0.22322 1.8628-1.8983-0.1284 0.36347-1.9694zm0.31803 4.091h-1.3314v-0.97201h1.3314zm0.01975-4.0455 1.8035 0.24297-0.03753 1.7324-1.9615-0.13432zm-0.167-15.742v-0.6815h2.3408l-0.01778 0.72496c-0.62026 0.50767-2.0366 0.30816-2.323-0.04346m-0.22914 0c-0.58076 0.58076-2.1038 0.36149-2.402 0v-0.67755l2.402-4e-3zm-2.6292 0c-0.54717 0.58076-1.9734 0.36149-2.2519 0v-0.67755l2.2519-4e-3zm-2.4672-4e-3s-0.05136 0.12445-0.40495 0.12445c-1.2998 0-1.4618-0.79804-1.4618-0.79804l1.8667-4e-3zm7.3464-10.367v0.1363c-0.40297 0.29433-1.3808 0.32396-1.7837 0.0059l-0.0039-0.49186-0.1047 0.47804c-0.37137 0.28248-1.2465 0.17581-1.5131-0.09679-0.33581 0.16593-0.92447-0.07704-1.1832-0.39112h6.5898v0.35952zm1.5842-14.554v0.44643c-0.3042-0.03358-0.58668-0.11457-0.67755-0.2568v-0.43063h1.6336v0.24099zm-0.84348 0.18963c-0.28248 0.34174-1.2761 0.30421-1.6316 0v-0.43063h1.6316zm0.76051 20.289v-5.2406h0.49977l0.0039 5.2406zm1.2405 0.8257s0.60644 0.05333 0.9462-0.2726c0.20149 0.23902 0.68545 0.67952 1.5507 0.67952v0.74471h1.3136c0.24692 0.29038 0.82372 0.8336 1.8568 1.2425h-6.9078v-0.79014c0.71113-0.1521 1.2405-0.76446 1.2405-1.604m-1.373-28.146c-0.25482 0.17581-1.1279 0.17581-1.3274-0.04543v-0.36149h2.6094l-0.0059 0.37137c-0.18568 0.22124-0.99163 0.24692-1.2761 0.03556m-1.4558-0.07901c-0.47211 0.10272-0.81187-0.2963-0.8415-0.32791h0.8415zm4.5907 21.115-0.0039 0.48791c-0.22914 0.18371-0.66175 0.24297-1.0608 0.21136v-0.33977h-0.62224l-2e-3 -0.35952zm0.14025 0h1.7679l-4e-3 0.48791c-0.3931 0.31211-1.4025 0.29235-1.764 0zm3.3917 0v0.3595c-0.21929 0.2963-1.0944 0.4247-1.4835 0.1284l-4e-3 -0.48791zm0.11457 0.0099h1.041c-0.33384 0.38915-0.88101 0.45828-1.041 0.34371zm2.4969 8.3301v0.96002s-0.08494 0.17778-0.6894 0.17778c-2.2124 0-2.485-1.1358-2.485-1.1358zm0.3042 2e-3 3.4213-0.0079v0.96793c-0.55508 0.561-1.7067 0.59458-2.5403 0.40692v-0.0237 0.0237c-0.35754-0.09284-0.75261-0.24692-0.88101-0.39902zm3.7433 0 3.4193-0.0079v0.96793c-0.82768 0.82965-2.9986 0.51557-3.4193 0.0079zm-5.4717 2.3843v-0.67755l1.8647 4e-3s-0.16 0.79804-1.4558 0.79804c-0.35952 0-0.4089-0.12445-0.4089-0.12445m-2.4672 4e-3v-0.6815l2.2519 4e-3v0.67755c-0.2805 0.36149-1.7067 0.58076-2.2519 0m-2.6292 0v-0.6815l2.404 4e-3v0.67755c-0.29828 0.36149-1.8233 0.58076-2.404 0m-2.6253 0v-0.6815h2.4001v0.6815c-0.30223 0.36149-1.8193 0.58076-2.4001 0m1.3195 19.787h-1.3354v-0.97201h1.3354zm4.6935 0h-1.337v-0.974h1.3354zm9.8017-3.6031-0.46223 2.6134c-0.75064-0.05136-1.5428-0.09679-2.3803-0.14815l0.44443-2.4062h-0.35556l-0.59656 2.3685c-0.91459-0.05531-1.8588-0.11852-2.807-0.17383l0.38717-18.296h-0.29433l-0.67952 18.254c-0.30223-0.02173-0.59853-0.03358-0.89681-0.05926l1.21-18.197h-0.3l-1.521 18.158c-3.08-0.194-5.932-0.379-7.564-0.482v-17.069h6.1118c0.79607 0 1.6455-0.05926 2.4415-0.25877 1.0252-0.25877 1.4499-0.77829 1.6376-1.1082h0.57285c0.27655 0.0079 0.55508 0.03161 0.8257 0.03161h7.1231l-0.34 19.577c-0.695-0.043-1.523-0.096-2.489-0.164l0.26272-2.643zm1.0963-18.575h0.45433c0.55705 0.42273 1.0331 0.78817 1.359 1.041l-0.0079 0.4247c-0.78422 2e-3 -1.5665-0.20939-1.8055-0.49582zm1.8331-2e-3 -0.0059 0.24692-0.33581-0.24692zm-0.52742-13.776-2e-3 -0.51359h2.6944l-2e-3 0.51359zm-0.20544 0.17976c-0.55508 0.45631-1.9655 0.47211-2.564 0l-0.0059-0.69335h2.5699zm-2.7714 0.01778c-0.56693 0.43065-1.8391 0.23707-2.1571-0.18566v-0.527h2.1571zm-2.327-0.19751c-0.23112 0.16791-1.0213 0.07704-1.5131-0.49779h1.5131zm7.9765 8.2195h-0.61631v-7.3266h0.63212zm1.5349 5.5606v0.96793c-0.27458 0.32791-1.2603 0.56298-2.1512 0.47606v-1.446zm0.29828-0.0079 3.4213 0.0079v0.96793c-0.4247 0.50964-2.5917 0.82175-3.4213-0.0079zm3.7413 0 3.4213 0.0079v0.96793c-0.42865 0.50964-2.5936 0.82175-3.4213-0.0079zm3.7275 0.0059 3.1705 2e-3s-0.26667 1.1358-2.4811 1.1358c-0.60644 0-0.6894-0.17778-0.6894-0.17778zm21.308 4.2312h0.38717l-0.0059 0.30025zm-2.4218-1.92h2.7319v0.9699c-0.23507 0.23112-0.5768 0.36347-0.95607 0.44248zm-0.6894 0.97385v-0.75656c0.5531 0.45038 1.0647 0.87113 1.5289 1.2544-0.68545-0.04148-1.3195-0.24692-1.5289-0.49779m-0.2963-4e-3c-0.82965 0.8257-2.9927 0.51754-3.4193 4e-3v-0.96793l3.4193-0.0059zm-3.7413 0c-0.8257 0.8257-2.9927 0.51754-3.4174 4e-3v-0.96793l3.4174-0.0059zm-3.7275-0.0099s-0.08494 0.18371-0.68742 0.18371c-2.2124 0-2.483-1.1378-2.483-1.1378h3.1705zm10.793-13.81-4e-3 -0.51359h2.6964v0.51359zm-0.20939 0.17778c-0.5531 0.45236-1.9635 0.47211-2.562 0l-0.0079-0.69138h2.5699zm-2.7734 0.01195c-0.56693 0.43656-1.8331 0.24297-2.1551-0.18371v-0.51952h2.161zm-2.325-0.198c-0.23309 0.16988-1.0232 0.07704-1.5112-0.49779h1.5112zm7.9844 8.014h-0.64397v-7.1192h0.65187zm2.726 4.8495v0.96793c-0.4168 0.50767-2.5186 0.80792-3.37 0.02568v-0.99953zm0.30026-0.0059 3.4233 0.0059v0.96793c-0.42668 0.51359-2.5917 0.82175-3.4233-4e-3zm3.7413 0 3.4193 0.0059v0.96793c-0.4247 0.51359-2.5877 0.82175-3.4193-4e-3zm3.7315 0.0059h3.1665s-0.26865 1.1378-2.483 1.1378c-0.60248 0-0.68347-0.18371-0.68347-0.18371zm-79.301 19.209-0.38-1.28h0.79014l0.37729 1.28zm-0.6815-5.0056 0.98373 0.1284 0.19754 2.5996-1.039-0.07111zm-0.73286 5.0056-0.38124-1.28h0.78817l0.37729 1.28zm13.558-43.856c-0.10074 0.06124-0.26075 0.07111-0.401 0.07111-0.47804 0-1.1497-0.32593-1.1497-0.51754h1.5507zm4.1739-7.453h1.2623v0.36149c-0.23112 0.26272-1.0785 0.24099-1.2623 0zm1.4025 0h1.2623v0.36149c-0.21531 0.24099-1.1003 0.21531-1.2642 0zm1.3847 0h0.83558c-0.02963 0.03161-0.36742 0.43063-0.83558 0.32791zm-2.7161 7.0066h1.6297v0.43063c-0.12247 0.18568-0.561 0.27655-0.96398 0.25087v-0.442h-0.667zm1.7976 0h1.6336v0.43063c-0.35754 0.30421-1.3531 0.34174-1.6336 0zm1.8015 0h1.5526c0 0.19161-0.6736 0.51754-1.1516 0.51754-0.14223 0-0.29828-0.0099-0.401-0.07111zm15.099-12.424v0.33384c-0.2726-0.03556-0.52544-0.10864-0.64594-0.24692v-0.512h1.8134v0.4247zm-0.8099 0.08691c-0.32791 0.38915-1.4973 0.34569-1.922 0v-0.51162h1.922zm-2.1472 2e-3c-0.1205 0.07309-0.30618 0.08296-0.47211 0.08296-0.56298 0-1.3472-0.37334-1.3551-0.59656h1.8272zm2.977-9.4086v-0.4306h1.4144l-0.0079 0.45236c-0.30223 0.34371-1.0766 0.34766-1.4065-0.02173m-0.15408 0c-0.26272 0.34174-1.1655 0.35556-1.4855 0v-0.4307h1.4855zm-1.6297-0.0099c-0.613 0.1303-1.056-0.3991-1.074-0.4209h1.0746zm3.8026-0.42075h1.4835v0.43063c-0.34174 0.37729-1.203 0.36939-1.4835 0zm1.6455 0h1.4894v0.43063c-0.32396 0.35556-1.2247 0.34174-1.4894 0zm1.6297 0h1.0687c-0.03358 0.03951-0.46816 0.55112-1.0687 0.42075zm-1.3828 9.3257v0.51162c-0.20939 0.25285-0.78619 0.31013-1.2642 0.25285v-0.33976h-0.57286l-0.0039-0.4247zm0.16593 0h1.924v0.51162c-0.4247 0.34569-1.5961 0.38915-1.924 0zm2.1452 0h1.8272c-0.0059 0.22322-0.79212 0.59656-1.3511 0.59656-0.1679 0-0.35161-0.0099-0.47606-0.08296zm-2.2361 21.332-4e-3 0.71113c-0.41878 0.32988-1.3195 0.40297-1.9754 0.2489v-0.44643h-0.31996l-0.0059-0.51359zm0.20544 0h2.568l-0.0079 0.71113c-0.56693 0.45038-2.0366 0.43063-2.5601 0zm4.9305 0v0.52545c-0.32001 0.42273-1.5941 0.61631-2.161 0.18568l-4e-3 -0.71113zm0.16395 0.0158h1.5112c-0.48594 0.57483-1.28 0.6657-1.5112 0.49779zm23.877-14.471v0.32988c-0.22914-0.05531-0.4326-0.13432-0.51162-0.24692v-0.51359h1.6771v0.43063zm-0.70915 0.08297c-0.32791 0.39507-1.4993 0.34964-1.922 0v-0.51359h1.922zm-2.1156 0.0039c-0.1205 0.07506-0.30816 0.08494-0.47606 0.08494-0.561 0-1.3531-0.37729-1.3531-0.60248h1.8292zm2.8564-8.0496v-0.43063h1.3926l-0.0099 0.47211c-0.31803 0.31803-1.0568 0.32198-1.3828-0.04148m-0.1521 0c-0.2647 0.33779-1.1674 0.35556-1.4874 0v-0.43063h1.4874zm-1.6336-0.0099c-0.61039 0.13037-1.0469-0.3931-1.0687-0.42075h1.0687zm3.7947-0.42075h1.4835v0.43063c-0.34174 0.38322-1.201 0.36939-1.4855 0zm1.6415 0h1.4874v0.43063c-0.32001 0.35556-1.2227 0.33779-1.4874 0zm1.6316 0h1.0687c-0.03951 0.04148-0.46816 0.55112-1.0687 0.42075zm-1.7403 7.9627v0.51359c-0.15803 0.18766-0.5294 0.26865-0.90866 0.27457v-0.35754h-0.641l-4e-3 -0.43063zm0.16396 0h1.9181v0.51359c-0.41878 0.34964-1.5921 0.39507-1.9181 0zm2.1472 0h1.8252c0 0.22519-0.79212 0.60248-1.3531 0.60248-0.16988 0-0.35161-0.0099-0.47211-0.08494zm-2.0386 18.126-0.0099 0.70323c-0.38515 0.3102-1.1713 0.38132-1.8094 0.27465v-0.46421h-0.51754l-0.0079-0.51359zm0.19951 0h2.5739l-0.0079 0.70323c-0.57088 0.45433-2.0346 0.43656-2.566 0zm4.9305 0v0.51959c-0.31801 0.42668-1.5882 0.62026-2.1531 0.18371l-0.0059-0.70323zm0.16988 0.0079h1.5112c-0.48791 0.57483-1.282 0.66767-1.5112 0.49779zm40.242 11.062-1.6297 0.77829-22.203 10.924v-0.32001h-1.0035v0.82175l-3.3324 1.7363-0.6973-1.2939-0.53927 0.26272 0.6894 1.2702-3.927 2.0149 0.36742 0.73878-11.666 6.3508c-0.06519-0.25284-0.04346-1.0193 0.87508-1.4124l-0.34369-0.69328s-1.8292 0.74076-2.1788 0.8415v0.0099c-0.70718 0.19358-1.5388 0.33581-2.4099 0.33581h-1.508v-18.153h8.6955c1.1813 0 2.4475-0.07901 3.6287-0.32791 1.8549-0.38915 2.6924-1.282 2.9492-1.6099h1.284v-0.90274c1.1852 0 1.5645-0.77829 1.5645-0.77829h-9.0511v0.59063h-9.0708v-1.1892c0.94225-0.1126 1.685-0.77632 1.685-1.6909 0 0 1.2227 0.1205 1.2227-0.85533h-1.191l-0.08494-7.1192h5.4737c2.6332 0 3.8757-0.99756 4.0436-1.4005h1.0292v-0.69533c1.205 0 1.4716-0.51557 1.4716-0.51557h-7.4175v0.59458h-4.6263l-0.15803-13.089h0.50569c0.79014 0 0.70915-0.71113 0.70915-0.71113h-0.50174l-0.0237-2.5522h3.8302c1.7166 0 2.3685-1.1181 2.3922-1.1576h0.33779v-0.26272c0.6736 0 0.78817-0.25285 0.78817-0.25285h-7.3602l-0.05926-6.4456h2.5462c1.4361 0 2.0899-0.8415 2.2006-1.0015h0.31606v-0.24099c0.48396 0 0.72693-0.27062 0.72693-0.27062h-5.8036l-0.05729-6.9631h-0.347l-0.10864 6.9592-0.21136 4e-3h-5.3829s0.24297 0.27062 0.72693 0.27062v0.24099h0.37137c0.06914 0.21926 0.43063 1.0015 2.2322 1.0015h2.2381l-0.09877 6.4456h-7.628s0.11457 0.25285 0.79212 0.25285v0.26272h0.34c0.02371 0.03951 0.6736 1.1576 2.3902 1.1576h3.368v2.5522h-0.774c0 0.77236 0.6815 0.71113 0.6815 0.71113h0.08889l-0.0158 13.089h-4.9838v-0.59463h-7.4135s0.26075 0.51557 1.4677 0.51557v0.69533h1.0371c0.16395 0.40297 1.4124 1.4005 4.0436 1.4005h3.8855l-0.13235 7.1192h-2.1038s-0.01975 0.86323 1.0055 0.86323h1.0825l-0.05531 2.9038h-4.237l-7.804-6.172-0.206 0.237c-0.07111 0.0079 3.7176 3.1408 7.1152 5.936h-4.1285v-0.58471h-9.0373s0.38124 0.77632 1.5684 0.77632v0.87508h1.1437c0.30026 0.33581 1.2267 1.2129 3.0816 1.602 1.1813 0.2489 2.4435 0.32791 3.6287 0.32791h7.3938c0.64397 0.53137 1.1536 0.94422 1.4025 1.1457l-0.31803 17.006h-2.1828l0.21334-1.9023h-0.35952l-0.34371 1.9023h-1.8707l0.36939-1.9319h-0.35556l-0.50569 1.9319h-1.8331l0.55112-1.9556h-0.35754l-0.69138 1.9556h-2.3289l0.42865-14.311h-0.47211l-0.5452 14.311h-0.67162l0.77632-14.319h-0.47211l-0.894 14.319h-0.55903s-0.58471-0.07309-0.91459 0.48791h-16.16s-0.66175-1.1852-2.0939-1.3432v-19.724h7.4748c1.1813 0 2.4435-0.07309 3.6287-0.32594 1.7284-0.36149 2.4969-1.1773 2.7714-1.5566h1.4558v-0.74471c1.1892 0 1.6929-0.8336 1.6929-0.8336h-9.1696v0.60644h-7.854v-1.7857c1.359-0.08494 1.9497-0.74274 1.9497-1.687 0 0 1.3136 0.14815 1.3136-1.0351h-1.3373l-0.09679-7.3266h5.4342c2.6391 0 3.8855-1.0035 4.0455-1.4065h1.0252v-0.69138c1.2089 0 1.4697-0.51557 1.4697-0.51557h-7.4135v0.59656h-4.586l-0.207-15.477h0.353c0.79014 0 0.70915-0.71706 0.70915-0.71706h-0.42273l-0.02766-3.3877h4.1186c1.6731 0 2.323-1.0509 2.3783-1.1398l0.34964-0.0059-2e-3 -0.25877c0.67755 0 0.79409-0.25285 0.79409-0.25285h-7.6525l-0.06124-7.8066h2.5206c1.4242 0 2.082-0.8336 2.2005-1.0015h0.27062v-0.2401c0.48791 0 0.72891-0.27062 0.72891-0.27062h-5.736l-0.057-6.9632h-0.415l-0.09679 6.9592-0.23309 4e-3h-5.3848s0.24297 0.27062 0.73088 0.27062v0.24099h0.25285c0.1205 0.1679 0.77434 1.0015 2.1966 1.0015h2.4159l-0.10469 7.8066h-7.7296s0.11457 0.25285 0.79212 0.25285v0.25877l0.31408 2e-3c0.05531 0.09284 0.70323 1.1437 2.3803 1.1437h3.4964l-0.0059 3.3877h-0.76644c0 0.77632 0.67755 0.71706 0.67755 0.71706h0.08692l-0.03163 15.477h-4.9819v-0.59656h-7.4115s0.26075 0.51557 1.4677 0.51557v0.69h1.0825c0.16198 0.40297 1.4084 1.4065 4.0475 1.4065h3.852l-0.12642 7.3266h-2.4218s-0.01778 0.86126 1.0055 0.86126h1.4025l-0.06321 3.6465h-1.772l-8.395-6.198-0.241 0.257c-0.07111 0.0079 4.4169 3.4648 7.6466 5.9419h-4.7784v-0.60644h-8.9484c0.06519-0.10469 0.13828-0.21926 0.13828-0.39902h-1.028l-0.05926-5.2406h3.8421c1.9536 0 2.8109-0.80595 2.8109-1.0311l-4e-3 -0.01185h0.67557v-0.1521c0.36742 0 0.5768-0.31408 0.5768-0.31408h-7.92l-0.12-10.602h0.32988c0.67162 0 0.60644-0.60248 0.60644-0.60248h-0.46026l-0.0158-1.7976h3.611c1.4242 0 1.9773-0.88891 2.0228-0.96793h0.29828v-0.18173c0.57483 0 0.67162-0.25087 0.67162-0.25087h-6.6155l-0.04741-5.8174h2.1571c0.99953 0 1.5704-0.50372 1.7956-0.75656h0.30223v-0.201c0.4168 0 0.62026-0.23309 0.62026-0.23309h-4.889l-0.04741-5.7997h-0.2805l-0.08889 5.7977-0.21531 2e-3h-4.581s0.20741 0.23309 0.62224 0.23309v0.20149h0.2884c0.22519 0.25285 0.79409 0.75656 1.7976 0.75656h2.0662l-0.08692 5.8174h-6.5819s0.09679 0.25087 0.66965 0.25087v0.18173h0.30025c0.04741 0.07901 0.60051 0.96793 2.0247 0.96793h3.0223l2e-3 1.7976h-0.7131c0 0.65977 0.57878 0.60248 0.57878 0.60248h0.13432l0.0099 10.602h-8.1444s0.20149 0.31408 0.57483 0.31408v0.1521h0.70125c0.09284 0.27853 0.95212 1.043 2.7971 1.043h2.5897l-0.11655 5.2406h-2.0326s-0.01975 0.82768 0.962 0.82768h1.0529l-0.0435 1.9398-17.98-11.981-0.17581 0.20346c-0.1284 0.04543 14.566 10.088 17.687 12.229h-11.299c0.25877 0.4326 0.92447 0.4247 0.92447 0.4247v0.18371h0.68742c0.18766 0.32988 0.61039 0.8494 1.6415 1.1082 0.79607 0.19951 1.6415 0.25877 2.4396 0.25877h6.0229l-0.318 14.4-12.28-1.477-1.367-15.331h-0.451l1.176 15.256-0.966-0.119-0.822-15.179h-0.399l0.591 15.1-13.299-1.596-0.045 0.454 13.369 1.7916 0.10272 2.6983-3.1053-0.21531 0.29828 0.91459s0.98966-0.08297 1.4894 1.0963c0.32001 0.75261 0.35556 0.8415 0.35556 0.8415l0.15013 0.4089h5.7977l0.17581 0.58076h-7.0738l0.25877 0.79409s1.28-0.07506 1.6218 0.74669c0.22914 0.53532 0.79014 2.0425 0.8099 2.0899h74.91s2.7655-0.0099 3.5576-0.87903c0 0-1.523 2.4178-5.3098 2.4178l-1.0193-2e-3h-1.847v-0.9699h-1.3334v0.9699h-3.3581v-0.9699h-1.3334v0.9699h-3.3581v-0.9699h-1.3334v0.9699h-3.3601v-0.9699h-1.3334v0.9699h-3.3581v-0.97h-1.339v0.97h-3.356v-0.97h-1.333v0.97h-3.36v-0.97h-1.334v0.97h-3.356v-0.9699h-1.3373v0.9699h-3.3581v-0.97h-1.334v0.97h-3.36v-0.97h-1.331v0.97h-3.36v-0.97h-1.334v0.97h-3.36v-0.97h-1.331v0.97h-3.36v-0.97h-1.336v0.9699h-3.3561v-0.9699h-1.3353v0.9699h-3.6406l0.89286-1.0272-4.7705 4e-3 0.86916 1.0114-0.45828 4.7725h71.615v-0.0079h5.1893s-0.19358-1.7245 1.8213-3.7808c1.6237-1.6554 1.9102-2.0998 2.2341-2.5956 0.58273-0.90076 1.1279-1.9694 1.361-5.0905h-0.90472s-1.2109 0.02568-1.8134 0.86521c-0.90471 1.2563-1.8371 1.8134-2.6272 2.0563-0.66372 0.21136-1.5546 0.30618-2.2954 0.13828l14.892-8.1088 0.79804 1.6198 0.47804-0.2963-0.78817-1.5902 1.6692-0.91064 0.0731 11.564h0.16988l0.5768-11.54h0.94818v-2.1235l22.345-11.779 1.6415-0.79607" fill="#231f20"/><path d="m7.7691 51.806-0.2232 0.292-0.2548-0.192 0.2271-0.294" fill="#fff"/></g><g transform="matrix(1.4286 0 0 1.4286 .012714 .0045571)" fill="#a20a35" stroke-width="1.9754"><path d="m211.74 85.12h10.005l-2e-3 -0.27062c2e-3 0-2.0307-0.05334-1.9694-3.6722 0 0-0.01-11.159-0.0119-11.161 0.0119-7.7533-7.8323-7.4748-7.8323-7.4748-3.287 0.06321-5.5152 2.0583-6.0624 2.6055l2e-3 -2.5739-10.082 0.39705v0.28643c2.086 0.14025 1.9062 3.2949 1.9062 3.3798v15.139c-0.68742 0.0059-1.8865 0.0099-1.8865-0.02173-3.37-0.19161-3.3739-3.6445-3.364-3.7453 0 0-0.0889-6.9809-0.0889-6.9375 0.0415-5.0095-2.9413-6.6096-2.9018-6.6471-5.6396-3.4944-13.717-1.0963-13.717-1.0963s-1.7284 5.4698-1.768 5.4303c8.577-3.7571 9.9795-0.04148 9.9321-0.16988 0.14618 0.36544 0.16988 0.69335 0.10075 0.98373-0.2805 1.6277-3.2594 2.0583-3.2949 2.0583-3.5339 0.62816-5.3908 1.2899-5.3908 1.2899-5.4322 1.8529-4.7152 6.4357-4.7152 6.4792 0.92842 5.8905 8.8832 5.7285 8.8832 5.7285h3.4075l1.7245-3.5379c-3.5359 0.7131-4.6283-1.2188-4.6283-1.2188-1.4716-2.4475 0.75854-3.8737 0.75854-3.8737 0.86915-0.67557 3.6564-1.2998 3.6564-1.2998v3.5714c0.28248 6.6056 7.3148 6.3745 7.536 6.3468h5.7621v2e-3l10.114 2e-3v-0.26667c-6e-3 0-1.8687-0.06519-1.9576-3.206l0.01-10.207v-4e-3c-0.0711-3.7789 3.0421-3.8263 3.0381-3.8322 3.0342-0.03161 2.8129 2.6588 2.8327 3.2593 0 0 4e-3 10.313 2e-3 10.317h0.0751l-0.0731 0.0099"/><path d="m166.75 52.671v0.26667c3.1744 1.2366 1.9912 4.3576 1.9912 4.3576l-5.8095 18.553-7.8481-23.126h-10.971v0.32791c1.8805 0.42865 2.7971 3.7038 2.7971 3.7038l7.2022 20.062c1.9892 5.6476 5.7206 6.7617 5.7206 6.7617l4.6065 1.7897 11.078-32.696"/><path d="m339.11 81.181-6e-3 -28.453-10.199 0.39705v0.287c2.084 0.14223 1.9042 3.2969 1.9042 3.3759v7.374c-7.1271-4.5512-12.303 1.3472-12.271 1.2405-3.3285 3.3305-3.1862 8.5829-3.2218 8.5494 0 5.5409 3.2218 8.3637 3.2218 8.3637 4.2411 4.569 9.3514 2.7912 9.3514 2.7912s2.2084-3.9527 2.2084-3.9863c-6.3034 1.0529-6.3034-7.135-6.2678-7.1686 0-7.0303 3.7334-6.6313 3.767-6.6688 3.2119 0.03753 3.21 3.7334 3.21 3.6011l4e-3 0.29038v13.946l2e-3 -2e-3v2e-3l10.296 0.0079v-0.27458c-4e-3 0-2.0504 0.20544-1.9991-3.6722"/><path d="m308.49 65.497v-2.9235l-10.084 0.39705v0.28445c2.084 0.14223 1.9062 3.2949 1.9062 3.3818l-6e-3 13.349 2e-3 1.7877c-0.65582 0.0059-2.0089 0.01185-2.0089-0.02173-3.3739-0.18964-3.3779-3.6426-3.366-3.7433 0 0-0.0849-6.9809-0.0849-6.9394 0.0375-5.0095-2.9453-6.6076-2.9018-6.6471-5.6396-3.4944-13.719-1.0963-13.719-1.0963s-1.7245 5.4717-1.7699 5.4303c8.579-3.7571 9.9756-0.03951 9.9341-0.16988 0.14618 0.36742 0.16593 0.69533 0.0968 0.9857-0.2805 1.6277-3.2574 2.0563-3.2949 2.0563-3.532 0.63014-5.3868 1.2919-5.3868 1.2919-5.4303 1.8509-4.7132 6.4357-4.7132 6.4772 0.92644 5.8925 8.8773 5.7305 8.8773 5.7305h3.4095l1.7245-3.5398c-3.5359 0.71508-4.6243-1.2188-4.6243-1.2188-1.4716-2.4455 0.75261-3.8737 0.75261-3.8737 0.87114-0.6736 3.6643-1.2998 3.6643-1.2998v3.5734c0.27655 6.6056 7.3148 6.3725 7.5261 6.3468h5.8885v2e-3h10.173v-0.2647c-0.0968 0.0059-2.0484 0.15605-2.001-3.6801l4e-3 -9.059h2e-3c4e-3 0.02963-0.27853-5.1359 6.5207-3.9981v-5.5468s-4.2865-1.3156-6.5207 2.9275"/><path d="m233.38 74.831c-0.21926 0.04938-3.1566-0.21531-2.8366-4.3241 0.0356 0.03753-0.081-3.6663 2.8445-3.6663 0 0 2.6549-0.1126 2.7181 3.6011 0 0.06519 0.35754 4.3892-2.726 4.3892m23.029-12.289h-23.361c-2.7497 0.1363-5.8293 0.66372-8.255 3.0223 0 0-4.2214 4.1206-0.59854 9.3395 0.0296 0 1.7225 2.4198 4.573 3.3364 2e-3 -2e-3 0.0296 0 0.0691 0.01185l-0.0474 0.0079c0.25877-0.0079-2.0149 0.25482-3.0144 0.8494-0.55508 0.35556-0.73286 0.74471-0.57681 1.7166 0.15606 0.96002 1.0173 4.1008 4.332 4.2905 2.3645 0.10469 5.7601-0.31606 7.5538 1.0153 0 0 1.2879 0.94027 1.2879 2.5107 0 1.1892-0.1363 3.6189-5.0925 3.8757-0.23112-2e-3 -4.1088-0.02963-4.8693-2.7774-4e-3 -0.01778-0.40495-2.3448 1.8628-2.6667 0 0-2.9808-0.69928-5.5034 0-3.4154 0.95212-4.4307 4.0989-2.5087 6.3488-0.0277-0.02765 2.7852 3.3087 10.375 3.2554 7.6466 0.20346 15.305-2.086 13.948-9.7602-0.0356 0-0.91854-5.4737-9.1992-5.4441h-4.089s-1.7423 0.13037-2.0959-0.69335c-4e-3 -0.0079-0.77434-1.2465 1.6435-1.3314h2e-3l0.44248-0.04938s7.1429-0.87706 9.3553-4.0021c0.0316-0.03358 3.3818-3.7374-0.0652-8.1938-4e-3 0-0.3042-0.4089-0.53335-0.60248h6.1394c-8e-3 2.8011-0.0257 11.011 4e-3 11.07-0.0158 7.7572 7.9706 7.4748 7.9706 7.4748 3.4312-0.06519 5.7029-2.2401 6.1197-2.6667l-2e-3 2.6391 10.187 2e-3v-0.26667c-2.1828-0.09679-2.003-3.5952-2.001-3.6742v-11.955l2e-3 -6.651-10.08 0.39705v0.28643c2.086 0.14025 1.9042 3.2949 1.9042 3.3798v6.9947l-2e-3 2.6253c-4e-3 0-4e-3 -0.0059-0.01-0.0099-0.11457 4.3083-3.1171 3.7986-3.1053 3.85-2.8327 0.02963-2.7616-3.1013-2.7616-3.1013"/><path d="m342.41 56.825c0-1.9359 1.5744-3.5122 3.5142-3.5122 1.9339 0 3.5082 1.5763 3.5082 3.5122 0 1.9378-1.5744 3.5102-3.5082 3.5102-1.9398 0-3.5142-1.5724-3.5142-3.5102m-0.56298 0c0 2.246 1.8292 4.0752 4.0771 4.0752 2.242 0 4.0712-1.8292 4.0712-4.0752s-1.8292-4.0771-4.0712-4.0771c-2.248 0-4.0771 1.8312-4.0771 4.0771"/><path d="m345.04 57.084v2.167h-0.66767v-4.8021h1.7166c0.80594 0 1.6356 0.25482 1.6356 1.203 0 0.57878-0.34371 1.0232-0.89879 1.1576v0.01383c0.57483 0.1363 0.65187 0.44841 0.72496 0.9857 0.0731 0.47804 0.12642 0.98768 0.30026 1.442h-0.71113c-0.0573-0.28643-0.13828-0.59853-0.17186-0.88496-0.0533-0.43063-0.0533-0.8257-0.2726-1.0667-0.19161-0.21531-0.45828-0.19556-0.72496-0.21531zm-0.0138-0.57285h1.0983c0.73681-0.03358 0.90274-0.36742 0.90274-0.74471 0-0.38124-0.16593-0.71508-0.90274-0.74669h-1.0983"/></g></svg>
