<?xml version="1.0" encoding="UTF-8"?>
<svg xmlns="http://www.w3.org/2000/svg" xmlns:rdf="http://www.w3.org/1999/02/22-rdf-syntax-ns#" xmlns:dc="http://purl.org/dc/elements/1.1/" xmlns:cc="http://creativecommons.org/ns#" version="1.1" viewBox="0 0 500 138.1">
    <path id="ship" fill="var(--primary-color)" stroke-miterlimit="10" stroke-width=".6px" d="M128.6,110.4v1.4c-.9,0-1.4-.1-1.4-.1v-1.5c.6.2,1.1.2,1.4.2M129.4,110.4s.7,0,1.5-.1v1.3c-.4,0-1,.2-1.5.2v-1.4ZM126.5,111.6c-2.4-.7-3-2.9-1.2-3.7,0,0,0,1.3,1.2,2v1.7ZM131.5,110.1c.2,0,1.3-.4,2.3-1.3,0,0-.6,1.8-2.3,2.5v-1.2ZM123.2,110.8h-5.5v-1.4h-1.9v1.4h-4.8v-1.4h-1.9v1.4h-4.8v-1.4h-1.9v1.4h-4.8v-1.4h-1.9v1.4h-4.8v-1.4h-1.9v1.4h-4.8v-1.4h-1.9v1.4h-4.8v-1.4h-1.9v1.4h-4.8v-1.4h-1.9v1.4h-4.8v-1.4h-1.9v1.4h-4.8v-1.4h-1.9v1.4h-4.8v-1.4h-1.9v1.4h-4.8v-1.4h-1.9v1.4h-4.8v-1.4h-1.9v1.4h-4.8v-1.4h-1.9v1.4h-.9l-.6-2.1h96.1s.1,0,.1,0c0,1,0,1.4.6,2.1h-.7ZM26.2,110.8l-.3-1h.6l.3,1h-.6ZM25.3,110.8l-.3-1h.6l.3,1h-.6ZM24.6,108.5h.6l.3,1h-.6l-.3-1ZM23.8,110.8l-.3-1h.6l.3,1h-.6ZM22.9,110.8l-.3-1h.6l.3,1h-.6ZM22.2,108.5h.6l.3,1h-.6l-.3-1ZM21.4,110.8l-.3-1h.6l.3,1h-.6ZM20.5,110.8l-.3-1h.6l.3,1h-.6ZM19.8,108.5h.6l.3,1h-.6l-.3-1ZM21.3,108.5l.3,1h-.6l-.3-1h.6ZM23.7,108.5l.3,1h-.6l-.3-1h.6ZM26.1,108.5l.3,1h-.6l-.3-1h.6ZM30.5,106.6h-1.9v-1.4h1.9v1.4ZM22.7,102.5l-.3-3.7,11.4,1.5-.5,2.8-10.5-.7ZM23,105.6l-.5-1.8h1.1l.5,1.8h-1.1ZM36.7,100.7l-.3,2.7-2.7-.2.5-2.8,2.5.3ZM37.2,106.6h-1.9v-1.4h1.9v1.4ZM37.2,100.8l2.6.3v2.5c0,0-2.9-.2-2.9-.2l.3-2.6ZM37,78.3v-1h3.3v1c-.9.7-2.9.4-3.3,0M36.6,78.3c-.8.8-3,.5-3.4,0v-1h3.4s0,1,0,1ZM32.9,78.3c-.8.8-2.8.5-3.2,0v-1h3.2s0,1,0,1ZM29.4,78.3s0,.2-.6.2c-1.9,0-2.1-1.1-2.1-1.1h2.7s0,1,0,1ZM39.9,63.5v.2c-.6.4-2,.5-2.5,0v-.7s-.2.7-.2.7c-.5.4-1.8.3-2.2-.1-.5.2-1.3-.1-1.7-.6h9.4v.5h-2.9ZM42.1,42.7v.6c-.4,0-.8-.2-1-.4v-.6h2.3v.3h-1.4ZM40.9,43c-.4.5-1.8.4-2.3,0v-.6h2.3v.6ZM42,72v-7.5h.7v7.5s-.7,0-.7,0ZM43.8,73.1s.9,0,1.4-.4c.3.3,1,1,2.2,1v1.1h1.9c.4.4,1.2,1.2,2.7,1.8h-9.9v-1.1c1-.2,1.8-1.1,1.8-2.3M41.8,32.9c-.4.3-1.6.3-1.9,0v-.5h3.7v.5c-.3.3-1.4.4-1.8,0M39.7,32.8c-.7.1-1.2-.4-1.2-.5h1.2v.5ZM46.3,63v.7c-.3.3-1,.3-1.5.3v-.5h-.9v-.5s2.4,0,2.4,0ZM46.5,63h2.5v.7c-.6.4-2,.4-2.5,0v-.7ZM51.3,63v.5c-.3.4-1.6.6-2.1.2v-.7s2.1,0,2.1,0ZM51.5,63h1.5c-.5.6-1.3.7-1.5.5v-.5ZM55.1,74.9v1.4s-.1.3-1,.3c-3.2,0-3.6-1.6-3.6-1.6h4.5ZM55.5,74.9h4.9s0,1.4,0,1.4c-.8.8-2.4.8-3.6.6h0s0,0,0,0c-.5-.1-1.1-.4-1.3-.6v-1.4ZM60.9,74.9h4.9s0,1.4,0,1.4c-1.2,1.2-4.3.7-4.9,0v-1.4ZM53,78.3v-1h2.7s-.2,1.1-2.1,1.1-.6-.2-.6-.2M49.5,78.3v-1h3.2v1c-.4.5-2.4.8-3.2,0M45.8,78.3v-1h3.4v1c-.4.5-2.6.8-3.4,0M42,78.3v-1h3.4v1c-.4.5-2.6.8-3.4,0M43.9,106.6h-1.9v-1.4h1.9v1.4ZM50.6,106.6h-1.9v-1.4h1.9v1.4ZM64.6,101.4l-.7,3.7c-1.1,0-2.2-.1-3.4-.2l.6-3.4h-.5l-.9,3.4c-1.3,0-2.7-.2-4-.2l.6-26.1h-.4l-1,26.1c-.4,0-.9,0-1.3,0l1.7-26h-.4l-2.2,25.9c-4.4-.3-8.5-.5-10.8-.7v-24.4h8.7c1.1,0,2.4,0,3.5-.4,1.5-.4,2.1-1.1,2.3-1.6h.8c.4,0,.8,0,1.2,0h10.2l-.5,28c-1,0-2.2-.1-3.6-.2l.4-3.8h-.5ZM66.2,74.9h.6c.8.6,1.5,1.1,1.9,1.5v.6c-1.1,0-2.2-.3-2.6-.7v-1.4ZM68.8,74.9v.4s-.5-.4-.5-.4h.5ZM68,55.2v-.7s3.8,0,3.8,0v.7h-3.8ZM67.7,55.5c-.8.7-2.8.7-3.7,0v-1s3.7,0,3.7,0v1ZM63.8,55.5c-.8.6-2.6.3-3.1-.3v-.8h3.1v1ZM60.5,55.2c-.3.2-1.5.1-2.2-.7h2.2v.7ZM71.9,67h-.9v-10.5h.9v10.5ZM74,74.9v1.4c-.4.5-1.8.8-3.1.7v-2.1h3.1ZM74.5,74.9h4.9v1.4c-.6.7-3.7,1.2-4.9,0v-1.4ZM79.8,74.9h4.9v1.4c-.6.7-3.7,1.2-4.9,0v-1.4ZM85.1,74.9h4.5s-.4,1.6-3.5,1.6-1-.3-1-.3v-1.4ZM115.6,80.9h.6v.4s-.6-.4-.6-.4ZM112.1,78.2h3.9v1.4c-.3.3-.8.5-1.4.6l-2.5-2ZM111.1,79.6v-1.1c.8.6,1.5,1.2,2.2,1.8-1,0-1.9-.4-2.2-.7M110.7,79.6c-1.2,1.2-4.3.7-4.9,0v-1.4h4.9s0,1.4,0,1.4ZM105.4,79.6c-1.2,1.2-4.3.7-4.9,0v-1.4h4.9s0,1.4,0,1.4ZM100,79.6s-.1.3-1,.3c-3.2,0-3.5-1.6-3.5-1.6h4.5v1.4ZM115.5,59.8v-.7s3.8,0,3.8,0v.7h-3.8ZM115.2,60.1c-.8.6-2.8.7-3.7,0v-1s3.7,0,3.7,0v1ZM111.2,60.1c-.8.6-2.6.3-3.1-.3v-.7h3.1v1ZM107.9,59.8c-.3.2-1.5.1-2.2-.7h2.2v.7ZM119.3,71.3h-.9v-10.2h.9v10.2ZM123.2,78.2v1.4c-.6.7-3.6,1.2-4.8,0v-1.4h4.8ZM123.6,78.2h4.9v1.4c-.6.7-3.7,1.2-4.9,0v-1.4ZM129,78.2h4.9v1.4c-.6.7-3.7,1.2-4.9,0v-1.4ZM134.3,78.2h4.5s-.4,1.6-3.5,1.6-1-.3-1-.3v-1.4ZM21,105.6l-.5-1.8h1.1l.5,1.8h-1.1ZM20,98.5l1.4.2.3,3.7h-1.5c0-.1-.2-3.9-.2-3.9ZM19,105.6l-.5-1.8h1.1l.5,1.8h-1.1ZM38.3,43c-.1,0-.4.1-.6.1-.7,0-1.6-.5-1.6-.7h2.2v.6ZM44.3,32.3h1.8v.5c-.3.4-1.5.3-1.8,0v-.5ZM46.3,32.3h1.8v.5c-.3.3-1.6.3-1.8,0v-.5ZM48.3,32.3h1.2s-.5.6-1.2.5v-.5ZM44.4,42.4h2.3v.6c-.2.3-.8.4-1.4.4v-.6h-1v-.3ZM47,42.4h2.3v.6c-.5.4-1.9.5-2.3,0v-.6ZM49.5,42.4h2.2c0,.3-1,.7-1.6.7s-.4,0-.6-.1v-.6ZM71.1,24.6v.5c-.4,0-.8-.2-.9-.4v-.7h2.6v.6h-1.7ZM70,24.7c-.5.6-2.1.5-2.7,0v-.7h2.7v.7ZM66.9,24.7c-.2.1-.4.1-.7.1-.8,0-1.9-.5-1.9-.9h2.6v.7ZM71.1,11.3v-.6h2v.6c-.4.5-1.5.5-2,0M70.9,11.3c-.4.5-1.7.5-2.1,0v-.6h2.1v.6ZM68.6,11.3c-.9.2-1.5-.6-1.5-.6h1.5v.6ZM74,10.7h2.1v.6c-.5.5-1.7.5-2.1,0v-.6ZM76.4,10.7h2.1v.6c-.5.5-1.7.5-2.1,0v-.6ZM78.7,10.7h1.5c0,0-.7.8-1.5.6v-.6ZM76.7,24v.7c-.3.4-1.1.4-1.8.4v-.5h-.8v-.6s2.6,0,2.6,0ZM77,24h2.7v.7c-.6.5-2.3.6-2.7,0v-.7ZM80,24h2.6c0,.3-1.1.9-1.9.9s-.5,0-.7-.1v-.7ZM76.8,54.5v1c-.6.5-1.9.6-2.8.4v-.6h-.5v-.7s3.3,0,3.3,0ZM77.1,54.5h3.7v1c-.8.6-2.9.6-3.7,0v-1ZM84.2,54.5v.8c-.5.6-2.3.9-3.1.3v-1s3.1,0,3.1,0ZM84.4,54.5h2.2c-.7.8-1.8,1-2.2.7v-.7ZM118.5,33.8v.5c-.3,0-.6-.2-.7-.4v-.7h2.4v.6h-1.7ZM117.5,33.9c-.5.6-2.1.5-2.7,0v-.7h2.7v.7ZM114.5,33.9c-.2.1-.4.1-.7.1-.8,0-1.9-.5-1.9-.9h2.6v.7ZM118.6,22.4v-.6h2v.7c-.5.5-1.5.5-2,0M118.4,22.4c-.4.5-1.7.5-2.1,0v-.6h2.1v.6ZM116,22.4c-.9.2-1.5-.6-1.5-.6h1.5v.6ZM121.4,21.8h2.1v.6c-.5.5-1.7.5-2.1,0v-.6ZM123.8,21.8h2.1v.6c-.5.5-1.7.5-2.1,0v-.6ZM126.1,21.8h1.5c0,0-.7.8-1.5.6v-.6ZM123.6,33.2v.7c-.2.3-.8.4-1.3.4v-.5h-.9v-.6s2.2,0,2.2,0ZM123.9,33.2h2.7v.7c-.6.5-2.3.6-2.7,0v-.7ZM126.9,33.2h2.6c0,.3-1.1.9-1.9.9s-.5,0-.7-.1v-.7ZM124,59.1v1c-.6.4-1.7.5-2.6.4v-.7h-.7v-.7s3.3,0,3.3,0ZM124.3,59.1h3.7v1c-.8.6-2.9.6-3.7,0v-1ZM131.3,59.1v.7c-.5.6-2.3.9-3.1.3v-1s3.1,0,3.1,0ZM131.6,59.1h2.2c-.7.8-1.8,1-2.2.7v-.7ZM189.1,74.9l-2.3,1.1-31.7,15.6v-.5h-1.4v1.2l-4.8,2.5-1-1.8-.8.4,1,1.8-5.6,2.9.5,1.1-16.7,9.1c0-.4,0-1.5,1.3-2l-.5-1s-2.6,1.1-3.1,1.2h0c-1,.3-2.2.5-3.4.5h-2.2v-25.9h12.4c1.7,0,3.5-.1,5.2-.5,2.6-.6,3.8-1.8,4.2-2.3h1.8v-1.3c1.7,0,2.2-1.1,2.2-1.1h-12.9v.8h-13v-1.7c1.3-.2,2.4-1.1,2.4-2.4,0,0,1.7.2,1.7-1.2h-1.7v-10.2c-.1,0,7.7,0,7.7,0,3.8,0,5.5-1.4,5.8-2h1.5v-1c1.7,0,2.1-.7,2.1-.7h-10.6v.8h-6.6l-.2-18.7h.7c1.1,0,1-1,1-1h-.7v-3.6s5.4,0,5.4,0c2.5,0,3.4-1.6,3.4-1.7h.5v-.4c1,0,1.1-.4,1.1-.4h-10.5v-9.2c0,0,3.6,0,3.6,0,2.1,0,3-1.2,3.1-1.4h.5v-.3c.7,0,1-.4,1-.4h-8.3v-9.9h-.6l-.2,9.9h-.3s-7.7,0-7.7,0c0,0,.3.4,1,.4v.3h.5c0,.3.6,1.4,3.2,1.4h3.2v9.2h-11s.2.4,1.1.4v.4h.5c0,0,1,1.7,3.4,1.7h4.8v3.6h-1.1c0,1.1,1,1,1,1h.1v18.7h-7.1v-.8h-10.6s.4.7,2.1.7v1h1.5c.2.6,2,2,5.8,2h5.6l-.2,10.2h-3s0,1.2,1.4,1.2h1.5v4.1h-6.1l-11.1-8.8-.3.3c-.1,0,5.3,4.5,10.2,8.5h-5.9v-.8h-12.9s.5,1.1,2.2,1.1v1.3h1.6c.4.5,1.8,1.7,4.4,2.3,1.7.4,3.5.5,5.2.5h10.6c.9.8,1.6,1.3,2,1.6l-.5,24.3h-3.1l.3-2.7h-.5l-.5,2.7h-2.7l.5-2.8h-.5l-.7,2.8h-2.6l.8-2.8h-.5l-1,2.8h-3.3l.6-20.4h-.7l-.8,20.4h-1l1.1-20.5h-.7l-1.3,20.5h-.8s-.8-.1-1.3.7h-23.1s-.9-1.7-3-1.9v-28.2h10.7c1.7,0,3.5-.1,5.2-.5,2.5-.5,3.6-1.7,4-2.2h2.1v-1.1c1.7,0,2.4-1.2,2.4-1.2h-13.1v.9h-11.2v-2.6c1.9-.1,2.8-1.1,2.8-2.4,0,0,1.9.2,1.9-1.5h-1.9v-10.5c-.1,0,7.6,0,7.6,0,3.8,0,5.6-1.4,5.8-2h1.5v-1c1.7,0,2.1-.7,2.1-.7h-10.6v.9h-6.6l-.3-22.1h.5c1.1,0,1-1,1-1h-.6v-4.8s5.8,0,5.8,0c2.4,0,3.3-1.5,3.4-1.6h.5s0-.4,0-.4c1,0,1.1-.4,1.1-.4h-10.9v-11.2c0,0,3.5,0,3.5,0,2,0,3-1.2,3.1-1.4h.4v-.3c.7,0,1-.4,1-.4h-8.2V0h-.7v9.9c-.1,0-.5,0-.5,0h-7.7s.3.4,1,.4v.3h.4c.2.2,1.1,1.4,3.1,1.4h3.5v11.2h-11.2s.2.4,1.1.4v.4h.4c0,.1,1,1.6,3.4,1.6h5v4.8h-1.1c0,1.1,1,1,1,1h.1v22.1h-7.2v-.9h-10.6s.4.7,2.1.7v1h1.5c.2.6,2,2,5.8,2h5.5l-.2,10.5h-3.5s0,1.2,1.4,1.2h2v5.2h-2.6l-12-8.9-.3.4c-.1,0,6.3,4.9,10.9,8.5h-6.8v-.9h-12.8c0-.1.2-.3.2-.6h-1.5v-7.5c0,0,5.4,0,5.4,0,2.8,0,4-1.2,4-1.5h0s1,0,1,0v-.2c.5,0,.8-.4.8-.4h-11.3l-.2-15.1h.5c1,0,.9-.9.9-.9h-.7v-2.6s5.1,0,5.1,0c2,0,2.8-1.3,2.9-1.4h.4v-.3c.8,0,1-.4,1-.4h-9.5v-8.3c0,0,3,0,3,0,1.4,0,2.2-.7,2.6-1.1h.4v-.3c.6,0,.9-.3.9-.3h-7v-8.3h-.5v8.3c-.1,0-.4,0-.4,0h-6.5s.3.3.9.3v.3h.4c.3.4,1.1,1.1,2.6,1.1h3v8.3h-9.5s.1.4,1,.4v.3h.4c0,.1.9,1.4,2.9,1.4h4.3v2.6s-1,0-1,0c0,.9.8.9.8.9h.2v15.1s-11.6,0-11.6,0c0,0,.3.4.8.4v.2h1c.1.4,1.4,1.5,4,1.5h3.7l-.2,7.5h-2.9s0,1.2,1.4,1.2h1.5v2.8c0,0-25.7-17.1-25.7-17.1l-.3.3c-.2,0,20.8,14.4,25.3,17.5h-16.1c.4.6,1.3.6,1.3.6v.3h1c.3.5.9,1.2,2.3,1.6,1.1.3,2.3.4,3.5.4h8.6l-.5,20.6-17.5-2.1-2-21.9h-.6l1.7,21.8-1.4-.2-1.2-21.7h-.6l.8,21.6L0,95.2v.6c0,0,19,2.6,19,2.6v3.9c.1,0-4.3-.3-4.3-.3l.4,1.3s1.4-.1,2.1,1.6c.5,1.1.5,1.2.5,1.2l.2.6h8.3l.3.8h-10.1l.4,1.1s1.8-.1,2.3,1.1c.3.8,1.1,2.9,1.2,3h107s4,0,5.1-1.3c0,0-2.2,3.5-7.6,3.5h-1.5s-2.6,0-2.6,0v-1.4h-1.9v1.4h-4.8v-1.4h-1.9v1.4h-4.8v-1.4h-1.9v1.4h-4.8v-1.4h-1.9v1.4h-4.8v-1.4h-1.9v1.4h-4.8v-1.4h-1.9v1.4h-4.8v-1.4h-1.9v1.4h-4.8v-1.4h-1.9v1.4h-4.8v-1.4h-1.9v1.4h-4.8v-1.4h-1.9v1.4h-4.8v-1.4h-1.9v1.4h-4.8v-1.4h-1.9v1.4h-4.8v-1.4h-1.9v1.4h-4.8v-1.4h-1.9v1.4h-5.2l1.3-1.5h-6.8s1.2,1.5,1.2,1.5l-.7,6.8h102.3s7.4,0,7.4,0c0,0-.3-2.5,2.6-5.4,2.3-2.4,2.7-3,3.2-3.7.8-1.3,1.6-2.8,1.9-7.3h-1.3s-1.7,0-2.6,1.2c-1.3,1.8-2.6,2.6-3.8,2.9-.9.3-2.2.4-3.3.2l21.3-11.6,1.1,2.3.7-.4-1.1-2.3,2.4-1.3v16.5h.3l.8-16.5h1.4v-3l31.9-16.8,2.3-1.1"/>
    <g id="rigging" fill="var(--primary-color)" stroke-miterlimit="10" stroke-width=".6px">
        <path d="M127,105.5l20.1-12.1.6-.3,21.2-8.3"/>
        <path d="M127.1,105.7l25.8-3.1,19.2-18.5"/>
        <path d="M137.9,109.9l10.5-11.7"/>
        <path d="M137.5,110.3l33.8-25.7"/>
        <path d="M137.8,108.1l15,3.6,34-35.3"/>
        <path d="M137.9,107.5l14.9,1.3"/>
        <path d="M152.9,108.4l19.8-24.7"/>
        <path d="M121.1,11.9l65.6,64.2"/>
        <path d="M121.1,11.9l7.1,9.3"/>
        <path d="M184.1,77.4l-62.9-54.2"/>
        <path d="M121.6,24.2l7.4,8.6"/>
        <path d="M129.7,33.6l42.7,49.7"/>
        <path d="M120.4,39.2l48.8,45.8"/>
        <path d="M120.2,39.5l14.1,18.2"/>
        <path d="M120.1,39.8l10.3,18.5"/>
        <path d="M131.9,60.8l18.8,33.6"/>
        <path d="M120.3,60.8l20.4,15.9"/>
        <path d="M119.7,72.7l5.1,4.5"/>
        <path d="M128.5,80.5l19.9,17.7"/>
        <path d="M72.4,69.2c19.5,12.3,36.6,17.8,58,13.1,0,0,5.8-1.1,9.2-3.8"/>
        <path d="M114,71.8l1.5-8.4"/>
        <path d="M117,58.6l1.7-12.1"/>
        <path d="M119.6,49.9h-1.4"/>
        <path d="M119.9,52.5h-2"/>
        <path d="M120.2,55.5h-2.7"/>
        <path d="M116.5,64.4h-1.1"/>
        <path d="M116.5,66.8h-1.6"/>
        <path d="M116.4,69.4h-2"/>
        <path d="M118.9,40.9l-3.6,17.6"/>
        <path d="M114.7,60.7l-3.2,15.3"/>
        <path d="M110.6,80.4l-1.5,7.2"/>
        <path d="M113,80.6l-4.2,10.1-7.1,17"/>
        <path d="M112.1,86.7l-7,21.2"/>
        <path d="M114.4,84l-5.9,24.3"/>
        <path d="M114.8,88.5l-2.3,15.7"/>
        <path d="M118.1,86.5h-7.6"/>
        <path d="M117,89.4h-7.6"/>
        <path d="M116.8,92.3h-8.7"/>
        <path d="M116.9,95.2h-10.1"/>
        <path d="M105.7,98.2h10.3"/>
        <path d="M104.4,101.2h11.5"/>
        <path d="M103.2,104.1h12.5"/>
        <path d="M120.1,24.5l-1.8,8.3"/>
        <path d="M117.9,34.5l-5.3,24.1"/>
        <path d="M112,60.8l-3.3,15.1"/>
        <path d="M107.6,80.5l-4.6,20.8"/>
        <path d="M120.9,12l-2.2,9.4"/>
        <path d="M118.3,23l-2.3,9.8"/>
        <path d="M115.6,34.6l-5.6,23.6"/>
        <path d="M109.4,60.7l-4,16.8"/>
        <path d="M104.7,80.6l-1.9,8.7"/>
        <path d="M94.7,76.5l22.1-15.8"/>
        <path d="M105.9,57.7l13.3-18.2"/>
        <path d="M120.8,23l-9.5,9.7"/>
        <path d="M114.1,21.2l6.8-9.3"/>
        <path d="M117.1,72.4s-5,2.6-26.4,2.4"/>
        <path d="M134.5,58.8c-.1.3-1.1,1-2.7,2-2.9,1.8-7.9,4.4-14.5,6.7"/>
        <path d="M114.5,68.4c-11.3,3.5-26.3,5.5-41.9.7"/>
        <path d="M105.4,58.7s-15.5,14.2-32.7,9.8"/>
        <path d="M81.4,77.4l35.6,30.7"/>
        <path d="M72,69.9l6,4.8"/>
        <path d="M102.1,86.5l.4-15.4"/>
        <path d="M100.8,86.5l.4-6"/>
        <path d="M76.6,33.8l50.9,23.7"/>
        <path d="M128.9,34.3c-1.9.9-28.7,10.5-55.8-2.9"/>
        <path d="M111.4,32.7s-16.5,5.3-38.2-1.4"/>
        <path d="M105.6,57.6l-30.7-24.3"/>
        <path d="M87.2,52.9l-14.3-21.4"/>
        <path d="M120.8,21.1L73.8.8"/>
        <path d="M73.8.8l6.9,9.2"/>
        <path d="M74.1,11.9c10.4,6.2,27.4,11.2,39.5,9.6"/>
        <path d="M75.8,13.6c9.6,6.5,29.1,16.2,50.7,9.1"/>
        <path d="M73.6,11.7l9.8,11.6"/>
        <path d="M44.1,24.1l5.7,7.7"/>
        <path d="M44.1,24.1l27.9,6.4"/>
        <path d="M49.7,31.9c3.5-.3,10.1-2.6,16.6-6.7"/>
        <path d="M68.8,23.5c4.9-3.5,9.4-8,12.2-13.4"/>
        <path d="M35.7,41.8l7.9-8.5"/>
        <path d="M44.8,32L73.5.9"/>
        <path d="M46.7,49.4l4-6"/>
        <path d="M51.6,42.1l12.2-18.4,9.5-11.8"/>
        <path d="M44,33l7.8,8.7"/>
        <path d="M44.6,33.3l22.3,20.4"/>
        <path d="M71.4,31.2c-2.1,1.4-11.6,2.9-21.3.8"/>
        <path d="M70.5,32.3c-3.4,2.6-13.6,7.4-34.6,9.3"/>
        <path d="M72.2,31.3c-1.1,2-7.5,7.7-18.3,10.4"/>
        <path d="M71.1,33.6l-13.3,19.2"/>
        <path d="M83.3,24c-4.7,7-21.4,22.7-36.7,25.6"/>
        <path d="M73.6,1l-2.5,9.2"/>
        <path d="M70.7,11.8l-3.1,11.7"/>
        <path d="M67.1,25.1l-7.5,28.4"/>
        <path d="M59.2,55.4l-4.9,18.6"/>
        <path d="M53,78.5l-7.9,26.2"/>
        <path d="M73.3,12l-2.8,11.7"/>
        <path d="M70.1,25.1l-6.7,28.4"/>
        <path d="M62.8,56.1l-4.3,18.1"/>
        <path d="M57.8,77.3l-1.7,7.1"/>
        <path d="M54.1,93.4l-2.9,11.3"/>
        <path d="M58,54.4l-12.5,22.5"/>
        <path d="M44.2,79.1l-2.1,3.8"/>
        <path d="M69.7,67.1l-26.2-20"/>
        <path d="M73,56.8l18.5,16.7"/>
        <path d="M47.6,79.6l-6.3,3.9"/>
        <path d="M87.2,54.4l-17,11.3"/>
        <path d="M67.3,67.6l-10.5,7"/>
        <path d="M56.9,99.3l4.9-22.1"/>
        <path d="M63.4,70.2l3-13.4"/>
        <path d="M66.9,54.1l5-22.7"/>
        <path d="M71.2,39.2l-2.7,14.9"/>
        <path d="M67.7,59.2l-1.6,7.9"/>
        <path d="M72.1,43.6h-1.6"/>
        <path d="M72.1,46.1h-2.2"/>
        <path d="M72.2,48.7h-2.7"/>
        <path d="M72.2,51.5h-3.2"/>
        <path d="M69.9,64.1h-3.2"/>
        <path d="M69.8,61.5h-2.5"/>
        <path d="M68.4,67.8l-2.1,6.2"/>
        <path d="M65.3,77l-9.5,28.1"/>
        <path d="M65.9,79.8l-6.1,27.4"/>
        <path d="M67.7,77.2l-3,25"/>
        <path d="M63,84h5.7"/>
        <path d="M62,86.9h6.7"/>
        <path d="M61,89.8h7.8"/>
        <path d="M69,92.6h-8.9"/>
        <path d="M59,95.5h10"/>
        <path d="M58,98.3h11"/>
        <path d="M57,101.5h12.1"/>
        <path d="M55.5,78.2c1.6,1.1,4.7,2.5,8.2,3.4"/>
        <path d="M70,82.6c9,1.3,20.4,1.1,31-2.1"/>
        <path d="M109.3,77.3c2.4-1.2,5.1-2.8,7.3-4.5"/>
        <path d="M89.4,75.8c-3.4,2.4-26.3,18.8-69.4,26.5"/>
        <path d="M52.7,78.8c-6.7,8.3-22.3,20.3-32.7,23.7"/>
        <path d="M48,73.1l20.6-15.8"/>
        <path d="M56.4,74.1l.3-7.3"/>
        <path d="M54.1,73.9l-10.6-9.9"/>
        <path d="M53.4,62.4l-10.1-15.6"/>
        <path d="M47.2,79l23.2,27"/>
        <path d="M43.1,74.4l2.3,2.4"/>
        <path d="M54.6,62.6c4.6-1.4,8.5-3.1,11.6-4.7"/>
        <path d="M68.9,56.1s-1,.3-2.6.7c-4.4,1.1-13.7,3.5-22.9,5.6"/>
        <path d="M43.9,24.1l-5.7,7.8"/>
        <path d="M43.9,24.2l-4,17.8"/>
        <path d="M31.5,79.1l-5.4,23.7"/>
        <path d="M43.6,33.1l-1.9,9"/>
        <path d="M41.5,43.5l-7.1,33.5"/>
        <path d="M34,79l-5.1,24.1"/>
        <path d="M42.8,47.1l-10,15.4"/>
        <path d="M42.7,47.2l-3.2,15.4"/>
        <path d="M39.1,64.3l-2.6,12.6"/>
        <path d="M36.1,79l-5,24.1"/>
        <path d="M41.7,56l-2.8,16.1"/>
        <path d="M41.3,58.4h2"/>
        <path d="M41,60.6h2.3"/>
        <path d="M36.9,64.1l-13.4.9"/>
        <path d="M37.7,64.2l-9.5,3.9"/>
        <path d="M40.2,64.4l-13.1,12.6"/>
        <path d="M39.7,72.8l-.6,2.9"/>
        <path d="M38.4,79.2l-4.3,20.7"/>
        <path d="M38.9,83.2l-1.9,17"/>
        <path d="M36.8,86.9h3.8"/>
        <path d="M36.3,89.8h4.3"/>
        <path d="M35.7,92.6h4.9"/>
        <path d="M35.1,95.5h5.6"/>
        <path d="M35.1,79.2l-12.9,19"/>
        <path d="M31.3,79.1l-22.1,17.6"/>
        <path d="M20,75.9l-1.1-14"/>
        <path d="M18.6,75.9l-.7-14.4"/>
        <path d="M19.4,102.2c-6.2-6.3-15-24.8-4.8-43"/>
    </g>
    <g id="text" fill="#a20a35">
        <path d="M302.5,121.6h14.3v-.4s-2.9,0-2.8-5.2c0,0,0-15.9,0-15.9,0-11.1-11.2-10.7-11.2-10.7-4.7,0-7.9,2.9-8.7,3.7v-3.7s-14.4.6-14.4.6v.4c3,.2,2.7,4.7,2.7,4.8v21.6c-1,0-2.7,0-2.7,0-4.8-.3-4.8-5.2-4.8-5.4,0,0-.1-10-.1-9.9,0-7.2-4.2-9.4-4.1-9.5-8.1-5-19.6-1.6-19.6-1.6,0,0-2.5,7.8-2.5,7.8,12.3-5.4,14.3,0,14.2-.2.2.5.2,1,.1,1.4-.4,2.3-4.7,2.9-4.7,2.9-5,.9-7.7,1.8-7.7,1.8-7.8,2.6-6.7,9.2-6.7,9.3,1.3,8.4,12.7,8.2,12.7,8.2h4.9l2.5-5.1c-5.1,1-6.6-1.7-6.6-1.7-2.1-3.5,1.1-5.5,1.1-5.5,1.2-1,5.2-1.9,5.2-1.9v5.1c.4,9.4,10.4,9.1,10.8,9.1h8.2s14.4,0,14.4,0v-.4s-2.7,0-2.8-4.6v-14.6s0,0,0,0c-.1-5.4,4.3-5.5,4.3-5.5,4.3,0,4,3.8,4,4.7,0,0,0,14.7,0,14.7h.1-.1"/>
        <path d="M238.2,75.3v.4c4.5,1.8,2.8,6.2,2.8,6.2l-8.3,26.5-11.2-33h-15.7v.5c2.7.6,4,5.3,4,5.3l10.3,28.7c2.8,8.1,8.2,9.7,8.2,9.7l6.6,2.6,15.8-46.7"/>
        <path d="M484.5,116v-40.6s-14.6.6-14.6.6v.4c3,.2,2.7,4.7,2.7,4.8v10.5c-10.2-6.5-17.6,1.9-17.5,1.8-4.8,4.8-4.6,12.3-4.6,12.2,0,7.9,4.6,11.9,4.6,11.9,6.1,6.5,13.4,4,13.4,4,0,0,3.2-5.6,3.2-5.7-9,1.5-9-10.2-9-10.2,0-10,5.3-9.5,5.4-9.5,4.6,0,4.6,5.3,4.6,5.1v.4s0,19.9,0,19.9h0s0,0,0,0h14.7s0-.4,0-.4c0,0-2.9.3-2.9-5.2"/>
        <path d="M440.7,93.6v-4.2l-14.4.6v.4c3,.2,2.7,4.7,2.7,4.8v19.1s0,2.6,0,2.6c-.9,0-2.9,0-2.9,0-4.8-.3-4.8-5.2-4.8-5.3,0,0-.1-10-.1-9.9,0-7.2-4.2-9.4-4.1-9.5-8.1-5-19.6-1.6-19.6-1.6,0,0-2.5,7.8-2.5,7.8,12.3-5.4,14.3,0,14.2-.2.2.5.2,1,.1,1.4-.4,2.3-4.7,2.9-4.7,2.9-5,.9-7.7,1.8-7.7,1.8-7.8,2.6-6.7,9.2-6.7,9.3,1.3,8.4,12.7,8.2,12.7,8.2h4.9l2.5-5.1c-5.1,1-6.6-1.7-6.6-1.7-2.1-3.5,1.1-5.5,1.1-5.5,1.2-1,5.2-1.9,5.2-1.9v5.1c.4,9.4,10.4,9.1,10.8,9.1h8.4s14.5,0,14.5,0v-.4c-.1,0-2.9.2-2.9-5.3v-12.9h0s-.4-7.3,9.3-5.7v-7.9s-6.1-1.9-9.3,4.2"/>
        <path d="M333.4,106.9c-.3,0-4.5-.3-4.1-6.2,0,0-.1-5.2,4.1-5.2,0,0,3.8-.2,3.9,5.1,0,0,.5,6.3-3.9,6.3M366.3,89.4h-33.4c-3.9.2-8.3.9-11.8,4.3,0,0-6,5.9-.9,13.3,0,0,2.5,3.5,6.5,4.8,0,0,0,0,0,0h0c.4,0-2.9.4-4.3,1.2-.8.5-1,1.1-.8,2.5.2,1.4,1.5,5.9,6.2,6.1,3.4.1,8.2-.5,10.8,1.5,0,0,1.8,1.3,1.8,3.6s-.2,5.2-7.3,5.5c-.3,0-5.9,0-7-4,0,0-.6-3.3,2.7-3.8,0,0-4.3-1-7.9,0-4.9,1.4-6.3,5.9-3.6,9.1,0,0,4,4.7,14.8,4.7,10.9.3,21.9-3,19.9-13.9,0,0-1.3-7.8-13.1-7.8h-5.8s-2.5.2-3-1c0,0-1.1-1.8,2.3-1.9h.6c0,0,10.2-1.3,13.4-5.8,0,0,4.8-5.3,0-11.7,0,0-.4-.6-.8-.9h8.8c0,4,0,15.7,0,15.8,0,11.1,11.4,10.7,11.4,10.7,4.9,0,8.1-3.2,8.7-3.8v3.8s14.6,0,14.6,0v-.4c-3.1-.1-2.9-5.1-2.9-5.2v-26.6s-14.4.6-14.4.6v.4c3,.2,2.7,4.7,2.7,4.8v13.7s0,0,0,0c-.2,6.2-4.5,5.4-4.4,5.5-4,0-3.9-4.4-3.9-4.4"/>
        <path d="M489.2,81.2c0-2.8,2.2-5,5-5s5,2.3,5,5-2.2,5-5,5-5-2.2-5-5M488.4,81.2c0,3.2,2.6,5.8,5.8,5.8s5.8-2.6,5.8-5.8-2.6-5.8-5.8-5.8-5.8,2.6-5.8,5.8"/>
        <path d="M492.9,81.6v3.1h-1v-6.9h2.5c1.2,0,2.3.4,2.3,1.7s-.5,1.5-1.3,1.7h0c.8.2.9.7,1,1.4.1.7.2,1.4.4,2.1h-1c0-.4-.2-.9-.2-1.3,0-.6,0-1.2-.4-1.5-.3-.3-.7-.3-1-.3h-1.3ZM492.9,80.7h1.6c1.1,0,1.3-.5,1.3-1.1s-.2-1-1.3-1.1h-1.6"/>
    </g>
</svg>
